<?xml version="1.0" encoding="UTF-8"?>
<svg version="1.1" xmlns="http://www.w3.org/2000/svg" width="602" height="479">
<path d="M0 0 C198.66 0 397.32 0 602 0 C602 158.07 602 316.14 602 479 C403.34 479 204.68 479 0 479 C0 320.93 0 162.86 0 0 Z " fill="#0F1B15" transform="translate(0,0)"/>
<path d="M0 0 C45 0 45 0 60 4 C60.99 4.99 61.98 5.98 63 7 C64.40087029 7.9203392 65.819158 8.81448626 67.25 9.6875 C76.53526082 15.77198798 83.5460541 25.11581207 86 36 C86.34419304 40.53001324 86.28547687 45.02290516 86.1875 49.5625 C86.16719727 51.36170898 86.16719727 51.36170898 86.14648438 53.19726562 C86.111408 56.13198879 86.06225427 59.06574882 86 62 C85.34 62 84.68 62 84 62 C83.95875 62.928125 83.9175 63.85625 83.875 64.8125 C82.36123318 75.05634669 75.06324972 83.42811412 67.0625 89.4609375 C46.5829953 103.08641442 25.24416852 98 0 98 C0 65.66 0 33.32 0 0 Z " fill="#F8F8F8" transform="translate(454,168)"/>
<path d="M0 0 C112.86 0 225.72 0 342 0 C342 6.93 342 13.86 342 21 C229.14 21 116.28 21 0 21 C0 14.07 0 7.14 0 0 Z " fill="#1DF798" transform="translate(135,314)"/>
<path d="M0 0 C8.25 0 16.5 0 25 0 C32.875764 11.25109143 32.875764 11.25109143 35.5078125 15.48828125 C36.0961084 16.4323584 36.6844043 17.37643555 37.29052734 18.34912109 C38.19859131 19.81599365 38.19859131 19.81599365 39.125 21.3125 C39.76518066 22.34197754 40.40536133 23.37145508 41.06494141 24.43212891 C43.04602815 27.61973116 45.02308917 30.80980668 47 34 C48.27585123 36.05350375 49.55188773 38.1068924 50.828125 40.16015625 C52.01067186 42.06494576 53.19297478 43.96988674 54.375 45.875 C55.20475342 47.21171753 55.20475342 47.21171753 56.05126953 48.57543945 C56.55770996 49.39359131 57.06415039 50.21174316 57.5859375 51.0546875 C58.0298584 51.77124512 58.4737793 52.48780273 58.93115234 53.22607422 C60 55 60 55 61 57 C61.33 38.19 61.66 19.38 62 0 C69.59 0 77.18 0 85 0 C85 32.34 85 64.68 85 98 C76.75 98 68.5 98 60 98 C55.58389384 92.99148935 54.18421853 90.84374255 52 85 C50.88309122 83.13593535 49.7176437 81.29987945 48.5 79.5 C45.95782657 75.52496518 43.4665667 71.52240109 41 67.5 C37.96111553 62.54491372 34.87404875 57.62475599 31.73828125 52.73046875 C29.4700869 49.16761965 27.23849112 45.5815858 25 42 C24.67 60.48 24.34 78.96 24 98 C16.08 98 8.16 98 0 98 C0 65.66 0 33.32 0 0 Z " fill="#F7F7F7" transform="translate(250,168)"/>
<path d="M0 0 C0.9384375 -0.02449219 1.876875 -0.04898438 2.84375 -0.07421875 C17.08512351 -0.13322997 26.22854537 7.27934789 36.03515625 16.796875 C37.25 18.375 37.25 18.375 37.25 21.375 C34.94921875 23.53125 34.94921875 23.53125 31.9375 25.875 C28.07795675 28.82065298 28.07795675 28.82065298 24.64453125 32.21875 C23.25 33.375 23.25 33.375 21.3125 33.2421875 C18.97895475 32.26103779 17.24045353 31.06281703 15.25 29.5 C14.59 28.98695313 13.93 28.47390625 13.25 27.9453125 C12.59 27.42710937 11.93 26.90890625 11.25 26.375 C6.06468669 22.31317124 0.74216031 21.65510319 -5.75 22.375 C-8.76981101 23.36695973 -8.76981101 23.36695973 -10.75 25.375 C-11.58356413 27.83087964 -11.58356413 27.83087964 -10.75 30.375 C-7.48142087 33.8544552 -3.53225287 35.48002541 0.78515625 37.3046875 C3.36767911 38.42609996 5.86543329 39.6617081 8.375 40.9375 C11.10949649 42.32571831 13.7810034 43.59133472 16.625 44.75 C26.46239978 49.15986887 35.48528696 54.18143983 41.1875 63.5625 C43.41086823 71.54046835 43.23567477 79.06792959 39.25 86.375 C38.59 86.375 37.93 86.375 37.25 86.375 C37.01152344 87.12652344 36.77304687 87.87804687 36.52734375 88.65234375 C33.68293615 94.71519419 26.35780065 98.1455275 20.4375 100.8125 C8.07267334 104.87548003 -8.04756589 103.82654376 -19.75 98.375 C-26.39113889 94.78496026 -32.18094729 90.4490258 -37.75 85.375 C-37.17646647 81.19927339 -34.84424074 78.58148364 -32.3125 75.3125 C-30.04410302 72.3668609 -27.8124557 69.46868355 -25.75 66.375 C-23.42125279 67.40999876 -21.6004139 68.49818855 -19.625 70.125 C-10.02132184 77.64092204 -1.10772178 81.74245282 11.25 80.375 C14.11083124 79.39490041 15.07543475 78.60996984 17.25 76.375 C18.16666667 73.875 18.16666667 73.875 17.25 71.375 C13.56894033 68.02358746 9.4468979 65.67241114 5.0625 63.375 C4.39831055 63.02252197 3.73412109 62.67004395 3.04980469 62.30688477 C-0.569171 60.41538669 -4.16581168 58.73416533 -8 57.3125 C-18.44064382 53.35165675 -29.32266621 46.2260947 -34.09765625 35.75390625 C-35.92261881 29.09880325 -35.79154128 21.60491559 -32.75 15.375 C-25.34763777 3.79630503 -13.00915376 0.01757994 0 0 Z " fill="#F8F9F8" transform="translate(392.75,165.625)"/>
<path d="M0 0 C23.43 0 46.86 0 71 0 C71 6.93 71 13.86 71 21 C55.16 21 39.32 21 23 21 C23 27.93 23 34.86 23 42 C36.2 42 49.4 42 63 42 C63 48.93 63 55.86 63 63 C49.8 63 36.6 63 23 63 C23 74.55 23 86.1 23 98 C15.41 98 7.82 98 0 98 C0 65.66 0 33.32 0 0 Z " fill="#F9F9F9" transform="translate(69,168)"/>
<path d="M0 0 C8.58 0 17.16 0 26 0 C31.30921279 9.89444202 36.446923 19.73325775 41 30 C41.99 30 42.98 30 44 30 C46.52340677 25.69125801 48.9426547 21.46416544 50.625 16.75 C51.82758173 13.47023166 53.21871455 10.96880908 55 8 C55.99 5.36 56.98 2.72 58 0 C66.58 0 75.16 0 84 0 C81.44621712 10.2151315 75.72972639 19.64386649 71 29 C70.34 29 69.68 29 69 29 C68.773125 29.78375 68.54625 30.5675 68.3125 31.375 C66.89676777 35.28511759 65.11668902 38.85342849 63.2265625 42.55078125 C61.67776349 45.64344679 60.35512229 48.81840853 59 52 C58.67199402 52.58076294 58.34398804 53.16152588 58.00604248 53.7598877 C55.08324143 58.96193728 54.39982032 63.18191182 54.390625 69.09375 C54.37408875 69.92588013 54.35755249 70.75801025 54.34051514 71.61535645 C54.29236954 74.24364852 54.2707397 76.87136354 54.25 79.5 C54.2218122 81.29429935 54.19188088 83.0885722 54.16015625 84.8828125 C54.08337215 89.2554652 54.04254526 93.62634774 54 98 C46.41 98 38.82 98 31 98 C30.99613281 93.98585938 30.99613281 93.98585938 30.9921875 89.890625 C30.96928263 87.25913569 30.93627864 84.62794959 30.90234375 81.99658203 C30.88432921 80.1870859 30.87658847 78.3774539 30.87988281 76.56787109 C30.89270203 64.97289027 30.11609298 57.06068171 24 47 C24 46.34 24 45.68 24 45 C23.34 45 22.68 45 22 45 C21.32845067 43.71086513 20.66291141 42.41859796 20 41.125 C19.62875 40.40570313 19.2575 39.68640625 18.875 38.9453125 C18 37 18 37 18 35 C17.34 35 16.68 35 16 35 C5.72178478 13.34645669 5.72178478 13.34645669 4.52734375 7.80859375 C4.1560037 5.77685368 4.1560037 5.77685368 1.9375 4.75 C1.298125 4.5025 0.65875 4.255 0 4 C0 2.68 0 1.36 0 0 Z " fill="#F6F6F6" transform="translate(150,168)"/>
<path d="M0 0 C15.95672337 0 23.25858731 0.39134646 34.90625 9.90234375 C39.09541571 14.09932507 40.38657786 17.41664039 40.51977539 23.23144531 C40.44643157 31.8769611 40.09708199 39.62170649 35 47 C32.24894636 49.66591465 29.45279977 51.37078157 26 53 C25.34515625 53.33644531 24.6903125 53.67289063 24.015625 54.01953125 C16.09783354 57.37998926 8.96867632 56 0 56 C0 37.52 0 19.04 0 0 Z " fill="#101C16" transform="translate(477,189)"/>
<path d="M0 0 C16 0 16 0 23 2 C23 2.33 23 2.66 23 3 C16.07 2.67 9.14 2.34 2 2 C2 19.49 2 36.98 2 55 C6.95 55 11.9 55 17 55 C17 55.33 17 55.66 17 56 C11.39 56 5.78 56 0 56 C0 37.52 0 19.04 0 0 Z " fill="#606864" transform="translate(477,189)"/>
<path d="M0 0 C0.66 0.33 1.32 0.66 2 1 C0.54540569 2.64913882 -0.91379257 4.29421782 -2.375 5.9375 C-3.18710937 6.85402344 -3.99921875 7.77054688 -4.8359375 8.71484375 C-7 11 -7 11 -9 12 C-9.66 12.99 -10.32 13.98 -11 15 C-10.67666114 9.66490885 -7.59438544 6.63023966 -4 3 C-1.625 1.0625 -1.625 1.0625 0 0 Z " fill="#BCBFBD" transform="translate(370,171)"/>
<path d="M0 0 C0.33 1.32 0.66 2.64 1 4 C0.34 4 -0.32 4 -1 4 C-1.144375 4.78375 -1.28875 5.5675 -1.4375 6.375 C-2 9 -2 9 -3 11 C-4.32 11 -5.64 11 -7 11 C-7 10.34 -7 9.68 -7 9 C-7.66 9 -8.32 9 -9 9 C-9.33 7.02 -9.66 5.04 -10 3 C-9.566875 3.66 -9.13375 4.32 -8.6875 5 C-7.8521875 5.99 -7.8521875 5.99 -7 7 C-6.01 7 -5.02 7 -4 7 C-2.68 4.69 -1.36 2.38 0 0 Z " fill="#878D8A" transform="translate(198,191)"/>
<path d="M0 0 C1.92536938 1.60558484 2.91074167 2.47769478 3.34057617 4.99291992 C3.3170105 6.10050659 3.3170105 6.10050659 3.29296875 7.23046875 C3.28330078 8.03291016 3.27363281 8.83535156 3.26367188 9.66210938 C3.23853516 10.49548828 3.21339844 11.32886719 3.1875 12.1875 C3.16719727 13.4549707 3.16719727 13.4549707 3.14648438 14.74804688 C3.11115799 16.83230384 3.05735139 18.91623277 3 21 C2.67 21 2.34 21 2 21 C1.93941406 20.154375 1.87882813 19.30875 1.81640625 18.4375 C1.36040967 12.2640078 0.84179888 6.13310616 0 0 Z " fill="#6B726F" transform="translate(514,203)"/>
<path d="M0 0 C3.875 1.75 3.875 1.75 5 4 C4.2575 4.12375 3.515 4.2475 2.75 4.375 C0.19858515 4.95486701 -1.7267573 5.73708739 -4 7 C-2.79618552 4.50638429 -1.54571278 2.31856917 0 0 Z " fill="#BEC1C0" transform="translate(367,232)"/>
</svg>
